<svg xmlns="http://www.w3.org/2000/svg" xmlns:xlink="http://www.w3.org/1999/xlink" width="1080" zoomAndPan="magnify" viewBox="0 0 810 809.999993" height="1080" preserveAspectRatio="xMidYMid meet" version="1.0"><defs><clipPath id="id1"><path d="M 0 41.238281 L 810 41.238281 L 810 768.738281 L 0 768.738281 Z M 0 41.238281 " clip-rule="nonzero"/></clipPath></defs><path fill="#f9ae1c" d="M 14.292969 712.585938 C 14.292969 705.269531 16.1875 698.007812 19.820312 691.585938 L 367.949219 77.023438 C 375.738281 63.234375 390.371094 54.707031 406.210938 54.707031 C 422.105469 54.707031 436.785156 63.285156 444.574219 77.128906 L 790.234375 691.640625 C 793.8125 698.007812 795.707031 705.21875 795.707031 712.585938 C 795.707031 736.160156 776.601562 755.265625 753.027344 755.265625 L 56.921875 755.265625 C 33.398438 755.265625 14.292969 736.160156 14.292969 712.585938 " fill-opacity="1" fill-rule="nonzero"/><path fill="#f79721" d="M 790.234375 691.640625 L 571.355469 302.578125 C 479.730469 544.972656 312.269531 681.21875 177.964844 755.265625 L 753.027344 755.265625 C 776.601562 755.265625 795.707031 736.160156 795.707031 712.585938 C 795.707031 705.21875 793.8125 698.007812 790.234375 691.640625 " fill-opacity="1" fill-rule="nonzero"/><path fill="#e03835" d="M 310.691406 553.179688 L 283.746094 553.179688 L 283.746094 593.597656 L 260.117188 593.597656 L 283.429688 488.765625 L 257.117188 482.871094 L 230.171875 604.121094 C 229.277344 608.121094 230.277344 612.332031 232.800781 615.488281 C 235.382812 618.699219 239.222656 620.542969 243.328125 620.542969 L 283.746094 620.542969 L 283.746094 647.488281 L 310.691406 647.488281 L 310.691406 620.542969 L 324.164062 620.542969 L 324.164062 593.597656 L 310.691406 593.597656 L 310.691406 553.179688 " fill-opacity="1" fill-rule="nonzero"/><path fill="#e03835" d="M 431.945312 593.597656 C 431.945312 608.4375 419.839844 620.542969 405 620.542969 C 390.160156 620.542969 378.054688 608.4375 378.054688 593.597656 L 378.054688 539.707031 C 378.054688 524.867188 390.160156 512.765625 405 512.765625 C 419.839844 512.765625 431.945312 524.867188 431.945312 539.707031 Z M 405 485.820312 C 375.265625 485.820312 351.109375 509.976562 351.109375 539.707031 L 351.109375 593.597656 C 351.109375 623.332031 375.265625 647.488281 405 647.488281 C 434.734375 647.488281 458.890625 623.332031 458.890625 593.597656 L 458.890625 539.707031 C 458.890625 509.976562 434.734375 485.820312 405 485.820312 " fill-opacity="1" fill-rule="nonzero"/><path fill="#e03835" d="M 580.144531 593.597656 L 566.671875 593.597656 L 566.671875 553.179688 L 539.726562 553.179688 L 539.726562 593.597656 L 516.097656 593.597656 L 539.410156 488.765625 L 513.097656 482.871094 L 486.152344 604.121094 C 485.257812 608.121094 486.257812 612.332031 488.78125 615.488281 C 491.363281 618.699219 495.203125 620.542969 499.308594 620.542969 L 539.726562 620.542969 L 539.726562 647.488281 L 566.671875 647.488281 L 566.671875 620.542969 L 580.144531 620.542969 L 580.144531 593.597656 " fill-opacity="1" fill-rule="nonzero"/><path fill="#e03835" d="M 391.527344 229.847656 L 391.527344 364.570312 L 418.472656 364.570312 L 418.472656 229.847656 L 391.527344 229.847656 " fill-opacity="1" fill-rule="nonzero"/><path fill="#e03835" d="M 391.527344 418.457031 L 418.472656 418.457031 L 418.472656 391.515625 L 391.527344 391.515625 L 391.527344 418.457031 " fill-opacity="1" fill-rule="nonzero"/><g clip-path="url(#id1)"><path fill="#100f0d" d="M 753.027344 741.792969 L 56.921875 741.792969 C 40.871094 741.792969 27.765625 728.6875 27.765625 712.585938 C 27.765625 707.585938 29.082031 702.636719 31.554688 698.269531 L 379.6875 83.652344 C 385.054688 74.128906 395.265625 68.179688 406.210938 68.179688 C 417.210938 68.179688 427.417969 74.128906 432.839844 83.757812 L 778.496094 698.21875 C 780.917969 702.585938 782.234375 707.53125 782.234375 712.585938 C 782.234375 728.6875 769.128906 741.792969 753.027344 741.792969 Z M 456.3125 70.496094 C 446.15625 52.445312 426.945312 41.238281 406.210938 41.238281 C 385.582031 41.238281 366.425781 52.394531 356.214844 70.390625 L 8.136719 684.957031 C 3.347656 693.375 0.820312 702.953125 0.820312 712.585938 C 0.820312 743.582031 25.976562 768.734375 56.921875 768.734375 L 753.027344 768.734375 C 783.972656 768.734375 809.179688 743.527344 809.179688 712.585938 C 809.179688 702.902344 806.707031 693.429688 801.96875 685.007812 L 456.3125 70.496094 " fill-opacity="1" fill-rule="nonzero"/></g><path fill="#100f0d" d="M 310.691406 553.179688 L 283.746094 553.179688 L 283.746094 593.597656 L 260.117188 593.597656 L 283.429688 488.765625 L 257.117188 482.871094 L 230.171875 604.121094 C 229.277344 608.121094 230.277344 612.332031 232.800781 615.488281 C 235.382812 618.699219 239.222656 620.542969 243.328125 620.542969 L 283.746094 620.542969 L 283.746094 647.488281 L 310.691406 647.488281 L 310.691406 620.542969 L 324.164062 620.542969 L 324.164062 593.597656 L 310.691406 593.597656 L 310.691406 553.179688 " fill-opacity="1" fill-rule="nonzero"/><path fill="#100f0d" d="M 431.945312 593.597656 C 431.945312 608.4375 419.839844 620.542969 405 620.542969 C 390.160156 620.542969 378.054688 608.4375 378.054688 593.597656 L 378.054688 539.707031 C 378.054688 524.867188 390.160156 512.765625 405 512.765625 C 419.839844 512.765625 431.945312 524.867188 431.945312 539.707031 Z M 405 485.820312 C 375.265625 485.820312 351.109375 509.976562 351.109375 539.707031 L 351.109375 593.597656 C 351.109375 623.332031 375.265625 647.488281 405 647.488281 C 434.734375 647.488281 458.890625 623.332031 458.890625 593.597656 L 458.890625 539.707031 C 458.890625 509.976562 434.734375 485.820312 405 485.820312 " fill-opacity="1" fill-rule="nonzero"/><path fill="#100f0d" d="M 566.671875 553.179688 L 539.726562 553.179688 L 539.726562 593.597656 L 516.097656 593.597656 L 539.410156 488.765625 L 513.097656 482.871094 L 486.152344 604.121094 C 485.257812 608.121094 486.257812 612.332031 488.78125 615.488281 C 491.363281 618.699219 495.203125 620.542969 499.308594 620.542969 L 539.726562 620.542969 L 539.726562 647.488281 L 566.671875 647.488281 L 566.671875 620.542969 L 580.144531 620.542969 L 580.144531 593.597656 L 566.671875 593.597656 L 566.671875 553.179688 " fill-opacity="1" fill-rule="nonzero"/><path fill="#100f0d" d="M 418.472656 229.847656 L 391.527344 229.847656 L 391.527344 364.570312 L 418.472656 364.570312 L 418.472656 229.847656 " fill-opacity="1" fill-rule="nonzero"/><path fill="#100f0d" d="M 418.472656 391.515625 L 391.527344 391.515625 L 391.527344 418.457031 L 418.472656 418.457031 L 418.472656 391.515625 " fill-opacity="1" fill-rule="nonzero"/></svg>